<svg id="Layer_1" data-name="Layer 1" xmlns="http://www.w3.org/2000/svg" viewBox="0 0 90.98 60"><defs><style>.cls-1{fill:#fff;}</style></defs><title>intel_logo</title><path class="cls-1" d="M43.23,53.49c-18,1.65-36.72-1-39.35-15C2.6,31.55,5.76,24.21,10,19.65V17.21C2.41,23.82-1.68,32.19.67,42.07c3,12.68,19.09,19.86,43.64,17.48,9.71-.95,22.42-4.07,31.26-8.93V43.73C67.55,48.51,54.28,52.46,43.23,53.49ZM90.59,17C86.32-3.78,45.9-5.1,19.84,10.76v1.76c26-13.38,63-13.3,66.31,5.88,1.13,6.34-2.44,13-8.83,16.76v5C85,37.31,92.88,28.2,90.59,17Z" transform="translate(-0.01 0)"/><path class="cls-1" d="M74.12,14H69.4V35c0,2.47,1.19,4.61,4.72,5Z" transform="translate(-0.01 0)"/><path class="cls-1" d="M18,21.68H13.27V35.39c0,2.47,1.2,4.61,4.73,4.94Z" transform="translate(-0.01 0)"/><rect class="cls-1" x="13.26" y="14.65" width="4.71" height="4.47"/><path class="cls-1" d="M46.22,40.12a5,5,0,0,1-5.43-5.26V16.64h4.67v5H49v3.77H45.46v9.12a1.45,1.45,0,0,0,1.62,1.65H49v3.9H46.22" transform="translate(-0.01 0)"/><path class="cls-1" d="M54.82,32.36A3.88,3.88,0,0,0,59,36.51a5.29,5.29,0,0,0,4.29-1.76l2.89,2.75a9.23,9.23,0,0,1-7.22,2.94c-4.47,0-8.75-2.44-8.75-9.55,0-6.09,3.74-9.53,8.65-9.53s7.86,4,7.86,9.31v1.69H54.82m3.8-7.13a3.59,3.59,0,0,0-3.35,1.93,4.67,4.67,0,0,0-.45,2H62C61.93,27.16,61,25.23,58.62,25.23Z" transform="translate(-0.01 0)"/><path class="cls-1" d="M30.68,25.45c1.37,0,1.94.68,1.94,1.78V40.15h4.67V27.2c0-2.62-1.4-5.52-5.5-5.52H22.14V40.15h4.67V25.45Z" transform="translate(-0.01 0)"/><path class="cls-1" d="M79.19,17.76a1.88,1.88,0,1,1,1.88-1.87A1.87,1.87,0,0,1,79.19,17.76Zm0-3.44a1.56,1.56,0,0,0-1.55,1.57,1.54,1.54,0,0,0,1.55,1.55,1.57,1.57,0,0,0,1.57-1.55A1.59,1.59,0,0,0,79.19,14.32ZM80,17h-.35A.08.08,0,0,1,79.6,17l-.48-.8a.11.11,0,0,0-.06,0h-.22v.8a.09.09,0,0,1-.08.09h-.31a.09.09,0,0,1-.08-.09v-2c0-.12,0-.17.14-.18a4.85,4.85,0,0,1,.58,0c.58,0,.92.17.92.71v0a.56.56,0,0,1-.42.6l.49.84a.11.11,0,0,1,0,.06A.07.07,0,0,1,80,17Zm-.45-1.61c0-.22-.14-.29-.45-.29h-.29v.64h.29c.31,0,.45-.1.45-.32Z" transform="translate(-0.01 0)"/></svg>