<?xml version="1.0" encoding="UTF-8"?>
<svg width="197px" height="14px" viewBox="0 0 197 14" version="1.1" xmlns="http://www.w3.org/2000/svg" xmlns:xlink="http://www.w3.org/1999/xlink">
    <!-- Generator: Sketch 47.1 (45422) - http://www.bohemiancoding.com/sketch -->
    <title>Logo/White/UC Santa Barbara@1x</title>
    <desc>Created with Sketch.</desc>
    <defs>
        <path d="M38.6390105,5.76155512 C37.058563,5.34039754 35.7504891,4.91174968 35.7504891,3.93086446 C35.7504891,3.31189559 36.2332712,2.39059209 37.5624541,2.39059209 C38.88653,2.39059209 39.879672,2.84920104 40.5956739,3.79365629 L42.4839035,2.14920104 C41.2851195,0.28037808 39.0969385,-0.000166666667 37.8961117,-0.000166666667 C34.9057907,-0.000166666667 32.8170261,1.72770298 32.8170261,4.20153567 C32.8170261,6.66243061 35.0668315,7.61812127 37.2795261,8.23811154 C39.1544774,8.76379248 39.8953335,9.01709987 39.8953335,10.1522166 C39.8953335,11.0510493 39.0976195,11.609415 37.8126973,11.609415 C35.7576389,11.609415 34.6262673,10.2472069 34.2970358,9.77804345 L32.2651292,11.5171485 C33.296063,13.1650084 35.0780669,13.9998333 37.5624541,13.9998333 C40.6630864,13.9998333 42.829137,12.211701 42.829137,9.65207069 C42.829137,7.07405512 40.6658101,6.29234306 38.6390105,5.76155512 L38.6390105,5.76155512 Z M24.8994677,9.31466796 C24.556277,11.5239578 23.0139619,12.6478392 20.7856058,12.6478392 C17.8521428,12.6478392 16.1001,10.5526057 16.1001,7.08631193 L16.1001,6.93378275 C16.1001,3.50562127 17.9852654,1.31539754 20.8043315,1.31539754 C22.8804988,1.31539754 24.2900319,2.1917594 24.8422693,4.45790726 L26.2327362,4.45790726 L26.2330767,0.342002594 L24.7469385,0.342002594 L24.7469385,1.82950259 C24.042172,0.572498703 22.5567148,0.00119520104 20.8424638,0.00119520104 C17.0901778,0.00119520104 14.3861895,2.91525162 14.3861895,6.9528489 L14.3861895,7.10503761 C14.3861895,11.2955045 16.8045261,13.9998333 20.7471331,13.9998333 C23.7425611,13.9998333 25.8871623,12.5058645 26.4121623,9.47094228 L24.8994677,9.31466796 Z M6.41449689,13.9998333 C3.29071284,13.9998333 1.51960389,12.1715259 1.51960389,8.85742088 L1.52368949,1.63747925 L0.0001,1.63747925 L0.0001,0.342002594 L4.89465253,0.342002594 L4.89465253,1.63747925 L3.18074202,1.63747925 L3.17665642,8.6667594 C3.17665642,11.5239578 4.18614086,12.628773 6.45228872,12.628773 C8.62378677,12.628773 9.91892296,11.7524112 9.91892296,8.41958042 L9.92266809,1.63747925 L8.20875759,1.63747925 L8.20875759,0.342002594 L13.1036506,0.342002594 L13.1036506,1.63747925 L11.5797206,1.63747925 L11.5759755,8.64803372 C11.5759755,11.9617983 9.91892296,13.9998333 6.41449689,13.9998333 L6.41449689,13.9998333 Z M77.9047206,2.96053372 L74.1932907,2.96053372 L74.1932907,0.339619326 L84.8298179,0.339619326 L84.8298179,2.96053372 L80.8678043,2.96053372 L80.8678043,13.787382 L77.9047206,13.787382 L77.9047206,2.96053372 Z M59.3795747,0.339619326 L63.406277,0.339619326 L69.1237381,9.68475551 L69.16153,9.68475551 L69.16153,0.339619326 L72.1249541,0.339619326 L72.1249541,13.787382 L68.2501,13.787382 L62.3804502,4.21447341 L62.3426584,4.21447341 L62.3426584,13.787382 L59.3795747,13.787382 L59.3795747,0.339619326 Z M90.4996136,4.25464851 L88.8660533,8.43319909 L92.1522401,8.43319909 L90.4996136,4.25464851 Z M89.3600708,0.342002594 L91.8100708,0.342002594 L97.660314,13.7894248 L94.3172693,13.7894248 L93.1586603,10.9403975 L87.9355572,10.9403975 L86.8147401,13.7894248 L83.5479599,13.7894248 L89.3600708,0.342002594 Z M50.5774833,4.25464851 L48.9442634,8.43319909 L52.2297693,8.43319909 L50.5774833,4.25464851 Z M49.4379405,0.342002594 L51.8879405,0.342002594 L57.7381837,13.7894248 L54.3951389,13.7894248 L53.23653,10.9403975 L48.0134268,10.9403975 L46.8926097,13.7894248 L43.6258296,13.7894248 L49.4379405,0.342002594 Z M133.067512,5.90523217 L134.814448,5.90523217 C135.080693,5.90523217 135.3626,5.89569909 135.660168,5.87663294 C135.957396,5.85722633 136.226365,5.80070882 136.467415,5.70571855 C136.707444,5.61038781 136.907298,5.46194423 137.065616,5.25902594 C137.223933,5.05678859 137.302921,4.77181777 137.302921,4.40445396 C137.302921,4.06262516 137.233466,3.79059209 137.094215,3.58733333 C136.954623,3.38543645 136.77724,3.22984306 136.562065,3.12225551 C136.346549,3.01500843 136.100051,2.94214851 135.821209,2.90367575 C135.542707,2.86588392 135.270674,2.8464773 135.004429,2.8464773 L133.067512,2.8464773 L133.067512,5.90523217 Z M130.104088,0.339619326 L135.308806,0.339619326 C135.992123,0.339619326 136.641053,0.406350843 137.255256,0.539473411 C137.869458,0.672255512 138.407396,0.893899481 138.87009,1.20372438 C139.332104,1.51423022 139.699127,1.93232361 139.971841,2.45766407 C140.243874,2.98300454 140.380061,3.63840337 140.380061,4.4235201 C140.380061,5.37308236 140.133223,6.18032944 139.639205,6.84526135 C139.145528,7.50985279 138.423738,7.93135084 137.473835,8.10839364 L140.893145,13.787382 L137.341053,13.787382 L134.530158,8.41209014 L133.067512,8.41209014 L133.067512,13.787382 L130.104088,13.787382 L130.104088,0.339619326 Z M106.279575,11.280524 L108.938621,11.280524 C109.166394,11.280524 109.397571,11.254989 109.631812,11.2039189 C109.866053,11.1538703 110.078164,11.0650084 110.268485,10.9383547 C110.458125,10.811701 110.613038,10.647596 110.733563,10.4446777 C110.853407,10.2420999 110.914011,9.99526135 110.914011,9.70382166 C110.914011,9.38718742 110.835022,9.13081582 110.676705,8.93436641 C110.518047,8.73825746 110.318534,8.58981388 110.078164,8.48801427 C109.837454,8.38689559 109.577678,8.31744034 109.299516,8.27930804 C109.021014,8.24083528 108.761238,8.22245006 108.520528,8.22245006 L106.279575,8.22245006 L106.279575,11.280524 Z M106.279575,5.71525162 L108.425878,5.71525162 C108.653991,5.71525162 108.878359,5.6897166 109.100003,5.63898703 C109.321306,5.58859792 109.52082,5.50586446 109.698203,5.39180804 C109.875586,5.27843256 110.017902,5.12624384 110.12583,4.93626329 C110.233077,4.74662322 110.28687,4.51851038 110.28687,4.25226524 C110.28687,3.97410376 110.226948,3.74292672 110.106423,3.55907458 C109.986579,3.37590337 109.831666,3.23324773 109.641345,3.13178859 C109.451365,3.03066991 109.235849,2.95815045 108.995479,2.91354929 C108.754769,2.86894812 108.520528,2.8464773 108.292756,2.8464773 L106.279575,2.8464773 L106.279575,5.71525162 Z M103.316151,0.339619326 L108.330547,0.339619326 C108.913086,0.339619326 109.49903,0.380815824 110.087697,0.462868353 C110.676705,0.545601816 111.20511,0.710047341 111.673933,0.956885863 C112.142075,1.20372438 112.522036,1.54929831 112.813475,1.99258625 C113.104575,2.43553372 113.250295,3.0245415 113.250295,3.7585882 C113.250295,4.51851038 113.038184,5.14837419 112.613621,5.6485201 C112.1894,6.14934695 111.629332,6.50649676 110.933077,6.72167185 L110.933077,6.76014462 C111.376024,6.823131 111.778116,6.94672049 112.139011,7.13023217 C112.499905,7.31374384 112.810071,7.54798508 113.069847,7.83261543 C113.329283,8.11792672 113.528796,8.45022244 113.668047,8.83018353 C113.807298,9.20980415 113.876754,9.61530026 113.876754,10.0459909 C113.876754,10.7551835 113.724905,11.3465746 113.421209,11.8218664 C113.117512,12.2961368 112.724954,12.6791621 112.243534,12.9709423 C111.762114,13.2620415 111.221112,13.4710882 110.619507,13.5977419 C110.017902,13.7243956 109.419701,13.787382 108.824905,13.787382 L103.316151,13.787382 L103.316151,0.339619326 Z M188.948009,4.25464851 L187.315129,8.43319909 L190.600635,8.43319909 L188.948009,4.25464851 Z M187.808806,0.342002594 L190.258806,0.342002594 L196.109049,13.7894248 L192.766005,13.7894248 L191.607396,10.9403975 L186.383952,10.9403975 L185.263475,13.7894248 L181.996695,13.7894248 L187.808806,0.342002594 Z M121.532493,4.25464851 L119.898933,8.43319909 L123.184779,8.43319909 L121.532493,4.25464851 Z M120.39261,0.342002594 L122.84261,0.342002594 L128.692853,13.7894248 L125.350149,13.7894248 L124.19154,10.9403975 L118.968096,10.9403975 L117.847279,13.7894248 L114.580499,13.7894248 L120.39261,0.342002594 Z M173.091783,5.9069345 L174.839059,5.9069345 C175.104964,5.9069345 175.38687,5.89706096 175.684439,5.87867575 C175.982007,5.85926913 176.250975,5.80241115 176.492026,5.70742088 C176.732055,5.61243061 176.931569,5.46398703 177.089886,5.26072827 C177.248203,5.05849092 177.327532,4.77386057 177.327532,4.40615629 C177.327532,4.06466796 177.257736,3.79229442 177.118485,3.58937613 C176.978894,3.38713878 176.801851,3.23188586 176.586676,3.12429831 C176.37116,3.01671077 176.124322,2.94385084 175.84582,2.90571855 C175.567318,2.86792672 175.294944,2.8485201 175.02904,2.8485201 L173.091783,2.8485201 L173.091783,5.9069345 Z M170.128699,0.341662127 L175.333077,0.341662127 C176.016734,0.341662127 176.665324,0.407712711 177.279867,0.541175746 C177.894069,0.674298314 178.432007,0.895942283 178.894361,1.20576719 C179.356715,1.51627302 179.723738,1.93436641 179.996452,2.45970687 C180.268145,2.98504734 180.404672,3.64044617 180.404672,4.42522244 C180.404672,5.3747847 180.157493,6.18237224 179.663816,6.84696368 C179.169798,7.51189559 178.448349,7.93305318 177.498446,8.10975551 L180.917756,13.7894248 L177.365324,13.7894248 L174.554088,8.41413294 L173.091783,8.41413294 L173.091783,13.7894248 L170.128699,13.7894248 L170.128699,0.341662127 Z M146.303845,11.2829073 L148.962892,11.2829073 C149.191005,11.2829073 149.421841,11.2573722 149.656082,11.2063022 C149.890664,11.1562536 150.102775,11.0673917 150.292415,10.940738 C150.482736,10.8140843 150.637308,10.6496388 150.758174,10.447061 C150.878018,10.2444831 150.938621,9.99730415 150.938621,9.70620493 C150.938621,9.38957069 150.859293,9.13319909 150.701316,8.93674968 C150.542658,8.74064073 150.343145,8.59185668 150.102775,8.49039754 C149.862065,8.38927886 149.602289,8.31982361 149.323787,8.28135084 C149.045285,8.24321855 148.785509,8.22449287 148.545139,8.22449287 L146.303845,8.22449287 L146.303845,11.2829073 Z M146.303845,5.71729442 L148.450149,5.71729442 C148.678261,5.71729442 148.902629,5.69209987 149.124614,5.64102983 C149.345917,5.59098119 149.545431,5.50824773 149.722814,5.39419131 C149.900197,5.28081582 150.042512,5.12862711 150.1501,4.93864656 C150.257688,4.74866602 150.311481,4.52055318 150.311481,4.25464851 C150.311481,3.97648703 150.251219,3.74530999 150.131034,3.56145785 C150.010509,3.37828664 149.855937,3.235631 149.665956,3.13417185 C149.475635,3.03305318 149.260119,2.96019326 149.02009,2.91593256 C148.77904,2.87133139 148.545139,2.84886057 148.317367,2.84886057 L146.303845,2.84886057 L146.303845,5.71729442 Z M143.340421,0.342002594 L148.355158,0.342002594 C148.937357,0.342002594 149.523641,0.383199092 150.112308,0.465251621 C150.701316,0.547985084 151.22938,0.71243061 151.698203,0.959269131 C152.166345,1.20610765 152.546306,1.55168158 152.837746,1.99496952 C153.128845,2.43757652 153.274565,3.02692477 153.274565,3.76097147 C153.274565,4.52055318 153.062454,5.15075746 152.638232,5.65090337 C152.214011,6.15138975 151.653602,6.50888003 150.957688,6.72405512 L150.957688,6.76218742 C151.400295,6.82551427 151.802726,6.94910376 152.163281,7.13227497 C152.524516,7.31578664 152.834341,7.55036835 153.094118,7.8349987 C153.353894,8.12030999 153.553407,8.45260571 153.692658,8.8325668 C153.831569,9.21218742 153.901365,9.61768353 153.901365,10.0480337 C153.901365,10.7575668 153.749516,11.3489578 153.445479,11.8242497 C153.142123,12.2985201 152.749225,12.6815454 152.267804,12.9733256 C151.786725,13.2644248 151.245382,13.473131 150.644118,13.5997847 C150.042512,13.7267789 149.443972,13.7897652 148.848835,13.7897652 L143.340421,13.7897652 L143.340421,0.342002594 Z M161.556423,4.25464851 L159.923203,8.43319909 L163.20939,8.43319909 L161.556423,4.25464851 Z M160.417221,0.342002594 L162.867221,0.342002594 L168.717464,13.7894248 L165.374419,13.7894248 L164.216151,10.9403975 L158.992707,10.9403975 L157.87189,13.7894248 L154.604769,13.7894248 L160.417221,0.342002594 Z" id="path-1"></path>
    </defs>
    <g id="Symbols" stroke="none" stroke-width="1" fill="none" fill-rule="evenodd">
        <g id="Logo/White/UC-Santa-Barbara">
            <mask id="mask-2" fill="white">
                <use xlink:href="#path-1"></use>
            </mask>
            <use id="logotype" fill="#FFFFFF" xlink:href="#path-1"></use>
            <g id="UI/Color/Neutral/@base-white" mask="url(#mask-2)" fill="#FFFFFF">
                <g id="Base">
                    <rect x="0" y="0" width="197" height="14"></rect>
                </g>
            </g>
        </g>
    </g>
</svg>