<svg id="header_footer" data-name="header/footer" xmlns="http://www.w3.org/2000/svg" viewBox="0 0 210 32"><defs><style>.cls-1{fill:#010101;}</style></defs><title>PRC-weblogo</title><path class="cls-1" d="M201.06,21.11l4.77,4.77A15.07,15.07,0,0,0,207.78,23l-10.11-4.19a4.21,4.21,0,0,0,.92-2.21l10.11,4.19a15,15,0,0,0,.68-3.44h-6.74a8.46,8.46,0,0,0,.1-1.2,8.31,8.31,0,0,0-.1-1.2h6.74a15,15,0,0,0-.68-3.44l-10.11,4.19a4.21,4.21,0,0,0-.92-2.21l10.11-4.19a15.07,15.07,0,0,0-1.95-2.91l-4.77,4.77a8.39,8.39,0,0,0-1.69-1.69l4.77-4.77a15,15,0,0,0-2.91-1.95L197,12.83a4.21,4.21,0,0,0-2.21-.92L199,1.8a15,15,0,0,0-3.44-.68V7.85h0a7.54,7.54,0,0,0-2.4,0V1.11a15,15,0,0,0-3.44.68l4.19,10.11a4.21,4.21,0,0,0-2.21.92L187.53,2.71a15.07,15.07,0,0,0-2.91,1.95l4.77,4.77a8.37,8.37,0,0,0-1.69,1.69h0l-4.77-4.77A15.05,15.05,0,0,0,181,9.27l10.11,4.19a4.22,4.22,0,0,0-.92,2.21l-10.11-4.19a15,15,0,0,0-.68,3.44h6.74a7.6,7.6,0,0,0,0,2.4h-6.74a15,15,0,0,0,.68,3.44l10.11-4.19a4.21,4.21,0,0,0,.92,2.21L181,23a15.1,15.1,0,0,0,1.95,2.91l4.77-4.77a8.38,8.38,0,0,0,1.69,1.69h0l-4.77,4.77a15,15,0,0,0,2.91,1.95l4.19-10.11a4.21,4.21,0,0,0,2.21.92l-4.19,10.11a15,15,0,0,0,3.44.68V24.37a7.54,7.54,0,0,0,2.4,0h0v6.74a15,15,0,0,0,3.44-.68l-4.19-10.11A4.21,4.21,0,0,0,197,19.4l4.19,10.11a15,15,0,0,0,2.91-1.95l-4.77-4.77h0A8.38,8.38,0,0,0,201.06,21.11Z"/><path class="cls-1" d="M19.29,21.1a4.49,4.49,0,0,1-3.22,2.1,4.17,4.17,0,0,1-4.18-4.46,5.53,5.53,0,0,1,1.28-3.55,4.4,4.4,0,0,1,3.2-1.62,3.12,3.12,0,0,1,3,3c0,0.53-.06.57-0.42,0.65s-2.9.27-5.55,0.36c-0.06,3.26,2,4.35,3.49,4.35a3.48,3.48,0,0,0,2.21-1Zm-5.8-4.18c1.26,0,2.5,0,3.76,0,0.29,0,.38-0.13.38-0.65a1.93,1.93,0,0,0-1.91-2C14.71,14.18,13.7,15.1,13.49,16.91Z"/><path class="cls-1" d="M24.21,23.2l-2.67-7.61c-0.4-1.11-.44-1.24-1.49-1.45V13.82h4.23v0.32l-0.86.23c-0.4.11-.5,0.29-0.29,0.9l1.81,5.4h0c0.78-2,1.58-4.29,2.54-6.75h0.23l2.71,6.75h0C31,19,31.67,16.81,32,15.29c0.15-.65.08-0.86-0.29-0.95l-1-.21V13.82h3.7v0.32a1.71,1.71,0,0,0-1.58,1.32c-0.61,1.41-1.75,4.9-2.69,7.74H29.84l-2.75-6.71c-0.84,2.19-1.7,4.25-2.59,6.71H24.21Z"/><path class="cls-1" d="M42,19.9c0,2.27.17,2.52,1.89,2.75v0.29H38.43V22.65c1.77-.23,1.93-0.48,1.93-2.75V12.33c0-2.27-.17-2.52-1.85-2.75V9.28h5.81a6.16,6.16,0,0,1,3.3.71A3.06,3.06,0,0,1,49,12.69a4,4,0,0,1-2.84,3.7c0.36,0.63,1.22,2.06,1.85,3a27.37,27.37,0,0,0,1.89,2.46,2.44,2.44,0,0,0,1.56,1l0,0.25c-0.25,0-.61,0-1.26-0.08a3.64,3.64,0,0,1-3-1.79c-0.84-1.2-1.58-2.54-2.21-3.6a1.47,1.47,0,0,0-1.51-.78H42v3Zm0-3.47h1.56a3.8,3.8,0,0,0,2.4-.55A3.47,3.47,0,0,0,47.19,13,3,3,0,0,0,43.91,9.7a8.59,8.59,0,0,0-1.71.16C42.07,9.9,42,10,42,10.43v6Z"/><path class="cls-1" d="M59,21.1a4.49,4.49,0,0,1-3.22,2.1,4.17,4.17,0,0,1-4.18-4.46,5.53,5.53,0,0,1,1.28-3.55A4.4,4.4,0,0,1,56,13.57a3.12,3.12,0,0,1,3,3c0,0.53-.06.57-0.42,0.65s-2.9.27-5.55,0.36C53,20.8,55,21.9,56.54,21.9a3.48,3.48,0,0,0,2.21-1Zm-5.8-4.18c1.26,0,2.5,0,3.76,0,0.29,0,.38-0.13.38-0.65a1.93,1.93,0,0,0-1.91-2C54.37,14.18,53.36,15.1,53.15,16.91Z"/><path class="cls-1" d="M66,16.16c-0.69-1.47-1.45-2.06-2.35-2.06a1.33,1.33,0,0,0-1.39,1.45c0,1,.93,1.53,1.89,1.93,1.6,0.65,2.54,1.35,2.54,2.82,0,1.89-1.83,2.9-3.43,2.9a4.12,4.12,0,0,1-2.4-.78,9.74,9.74,0,0,1-.25-2.33l0.32,0c0.38,1.18,1.47,2.63,2.69,2.63a1.49,1.49,0,0,0,1.62-1.62c0-1-.65-1.49-1.75-2-1.28-.59-2.54-1.2-2.54-2.71a2.92,2.92,0,0,1,3.18-2.78,4.41,4.41,0,0,1,1.75.36,13,13,0,0,1,.44,2.1Z"/><path class="cls-1" d="M75.81,21.1a4.49,4.49,0,0,1-3.22,2.1,4.17,4.17,0,0,1-4.18-4.46,5.53,5.53,0,0,1,1.28-3.55,4.4,4.4,0,0,1,3.2-1.62,3.12,3.12,0,0,1,3,3c0,0.53-.06.57-0.42,0.65s-2.9.27-5.55,0.36c-0.06,3.26,2,4.35,3.49,4.35a3.48,3.48,0,0,0,2.21-1ZM70,16.91c1.26,0,2.5,0,3.76,0,0.29,0,.38-0.13.38-0.65a1.93,1.93,0,0,0-1.91-2C71.23,14.18,70.22,15.1,70,16.91Z"/><path class="cls-1" d="M84,20.84c0,0.78.27,1.18,0.59,1.18a1.91,1.91,0,0,0,.9-0.23l0.17,0.32-2,1.09a1.64,1.64,0,0,1-1.18-1.41A8.62,8.62,0,0,1,80,23.2a2.5,2.5,0,0,1-2.54-2.42,2.11,2.11,0,0,1,1.62-2.06,30,30,0,0,0,3.36-1.43V16.43c0-1.26-.57-2.08-1.64-2.08a1.45,1.45,0,0,0-1.05.34A2.43,2.43,0,0,0,79,16.2a0.45,0.45,0,0,1-.48.4,0.9,0.9,0,0,1-.88-0.74A1.31,1.31,0,0,1,78.35,15a8.43,8.43,0,0,1,3.22-1.43,2.8,2.8,0,0,1,1.58.48A2.3,2.3,0,0,1,84,16.11v4.73Zm-1.54-3.07c-0.46.19-1.7,0.76-2.1,1a1.64,1.64,0,0,0-1.18,1.6,1.58,1.58,0,0,0,1.49,1.75,3.05,3.05,0,0,0,1.79-.74V17.77Z"/><path class="cls-1" d="M89.4,21.06c0,1.16.1,1.37,1.72,1.6v0.29H86.38V22.65c1.35-.23,1.45-0.44,1.45-1.6V16.2c0-1.24,0-1.37-1.39-1.54V14.37a16,16,0,0,0,3-.84V15.8h0c0.48-.9,1.47-2.23,2.46-2.23a1.14,1.14,0,0,1,1.11,1,1.11,1.11,0,0,1-.63,1,0.43,0.43,0,0,1-.48,0,1.3,1.3,0,0,0-.9-0.42c-0.48,0-1,.36-1.6,1.45v4.52Z"/><path class="cls-1" d="M100.88,14.14a0.54,0.54,0,0,1,.21.46,1,1,0,0,1-.69.93,0.45,0.45,0,0,1-.32-0.15,3.17,3.17,0,0,0-2.27-.95c-1.22,0-2.46.95-2.46,3.41,0,3.26,2.29,4.08,3.3,4.08s1.45-.23,2.54-1.26l0.21,0.19A4.47,4.47,0,0,1,98,23.2a4.28,4.28,0,0,1-4.33-4.31,5,5,0,0,1,1.93-4A5.88,5.88,0,0,1,99,13.57,3.39,3.39,0,0,1,100.88,14.14Z"/><path class="cls-1" d="M105,15.08a5.1,5.1,0,0,1,3-1.51c1.77,0,2.86,1.07,2.86,3.07v4.42c0,1.16.11,1.37,1.35,1.6v0.29H107.9V22.65c1.32-.23,1.43-0.44,1.43-1.6V17.23c0-1.58-.55-2.59-2.17-2.59a3.15,3.15,0,0,0-2.14.93v5.49c0,1.16.11,1.37,1.39,1.6v0.29h-4.33V22.65c1.26-.23,1.37-0.44,1.37-1.6V10.56c0-1.26,0-1.39-1.43-1.58V8.75c0.93-.19,2.29-0.53,3-0.74v7.07Z"/><path class="cls-1" d="M127.57,12.73c-0.84-2.42-2.21-3.3-4.33-3.3-3.2,0-4.9,3.09-4.9,6.39,0,4.06,1.82,7,4.92,7,2.44,0,3.53-1.37,4.77-3.57l0.32,0.06c-0.27.9-.74,2.59-1.07,3.39a18.89,18.89,0,0,1-4,.59,6.76,6.76,0,0,1-7-7A7.14,7.14,0,0,1,123.7,9a15.67,15.67,0,0,1,3.81.55c0.17,1.16.25,2.08,0.38,3.17Z"/><path class="cls-1" d="M136.93,21.1a4.49,4.49,0,0,1-3.22,2.1,4.17,4.17,0,0,1-4.18-4.46,5.53,5.53,0,0,1,1.28-3.55,4.4,4.4,0,0,1,3.2-1.62,3.12,3.12,0,0,1,3,3c0,0.53-.06.57-0.42,0.65s-2.9.27-5.55,0.36c-0.06,3.26,2,4.35,3.49,4.35a3.48,3.48,0,0,0,2.21-1Zm-5.8-4.18c1.26,0,2.5,0,3.76,0,0.29,0,.38-0.13.38-0.65a1.93,1.93,0,0,0-1.91-2C132.35,14.18,131.34,15.1,131.13,16.91Z"/><path class="cls-1" d="M141.23,15.19c0.42-.27,1-0.67,1.51-1a3.07,3.07,0,0,1,1.7-.61,2.51,2.51,0,0,1,2.67,2.78v4.71c0,1.16.11,1.37,1.28,1.6v0.29H144V22.65c1.43-.23,1.54-0.44,1.54-1.6V17c0-1.22-.38-2.38-2-2.38a4,4,0,0,0-2.27,1v5.4c0,1.16.1,1.37,1.41,1.6v0.29h-4.5V22.65c1.41-.23,1.51-0.44,1.51-1.6V16.2c0-1.24,0-1.37-1.39-1.54V14.37a16.05,16.05,0,0,0,3-.84v1.66Z"/><path class="cls-1" d="M152,20.17c0,1.66.8,2,1.39,2a3.24,3.24,0,0,0,1.35-.44L154.89,22l-1.72,1a1.31,1.31,0,0,1-.57.19c-1.49,0-2.17-.86-2.17-2.46V14.52H148.9l-0.06-.21,0.65-.48h0.95V12.6l1.3-1.6L152,11.11v2.71h2.5a0.48,0.48,0,0,1-.15.69H152v5.66Z"/><path class="cls-1" d="M163.12,21.1a4.49,4.49,0,0,1-3.22,2.1,4.17,4.17,0,0,1-4.18-4.46A5.53,5.53,0,0,1,157,15.19a4.4,4.4,0,0,1,3.2-1.62,3.12,3.12,0,0,1,3,3c0,0.53-.06.57-0.42,0.65s-2.9.27-5.55,0.36c-0.06,3.26,2,4.35,3.49,4.35a3.48,3.48,0,0,0,2.21-1Zm-5.8-4.18c1.26,0,2.5,0,3.76,0,0.29,0,.38-0.13.38-0.65a1.93,1.93,0,0,0-1.91-2C158.54,14.18,157.53,15.1,157.32,16.91Z"/><path class="cls-1" d="M167.42,21.06c0,1.16.1,1.37,1.72,1.6v0.29h-4.75V22.65c1.35-.23,1.45-0.44,1.45-1.6V16.2c0-1.24,0-1.37-1.39-1.54V14.37a16,16,0,0,0,3-.84V15.8h0c0.48-.9,1.47-2.23,2.46-2.23a1.14,1.14,0,0,1,1.11,1,1.11,1.11,0,0,1-.63,1,0.43,0.43,0,0,1-.48,0,1.3,1.3,0,0,0-.9-0.42c-0.48,0-1,.36-1.6,1.45v4.52Z"/><path class="cls-1" d="M4.21,19.9c0,2.27.17,2.52,2.21,2.75v0.29H0.64V22.65c1.72-.23,1.89-0.48,1.89-2.75V12.33c0-2.27-.17-2.52-1.79-2.75V9.28H6.53a5.86,5.86,0,0,1,3.51.88A3.36,3.36,0,0,1,11.37,13a4.4,4.4,0,0,1-4.1,4.23,10.64,10.64,0,0,1-1.07,0l-2-.48V19.9Zm0-3.51a6.62,6.62,0,0,0,1.9.29c1.54,0,3.32-.76,3.32-3.57C9.43,10.69,8.15,9.7,6,9.7a8,8,0,0,0-1.6.16c-0.13,0-.2.14-0.2,0.56v6Z"/></svg>