<svg id="header_footer" data-name="header/footer" xmlns="http://www.w3.org/2000/svg" viewBox="0 0 305 46"><defs><style>.cls-1{fill:#010101;}</style></defs><title>PRC-weblogo</title><path class="cls-1" d="M33.65,30.49l7.15,7.15a22.62,22.62,0,0,0,2.92-4.37L28.55,27a6.31,6.31,0,0,0,1.37-3.32L45.09,30a22.44,22.44,0,0,0,1-5.16H36a12.68,12.68,0,0,0,.14-1.8A12.49,12.49,0,0,0,36,21.2H46.12a22.45,22.45,0,0,0-1-5.16L29.93,22.33A6.32,6.32,0,0,0,28.55,19l15.17-6.28A22.61,22.61,0,0,0,40.8,8.36l-7.15,7.15A12.59,12.59,0,0,0,31.11,13l7.15-7.15A22.57,22.57,0,0,0,33.89,2.9L27.6,18.07a6.32,6.32,0,0,0-3.32-1.38L30.57,1.53a22.47,22.47,0,0,0-5.16-1V10.61h0a11.3,11.3,0,0,0-3.59,0V0.5a22.47,22.47,0,0,0-5.16,1l6.28,15.17a6.32,6.32,0,0,0-3.32,1.38L13.35,2.9A22.61,22.61,0,0,0,9,5.82L16.13,13a12.55,12.55,0,0,0-2.54,2.54h0L6.44,8.36a22.59,22.59,0,0,0-2.92,4.37L18.69,19a6.32,6.32,0,0,0-1.38,3.32L2.14,16a22.52,22.52,0,0,0-1,5.16H11.23a11.4,11.4,0,0,0,0,3.6H1.12a22.52,22.52,0,0,0,1,5.16l15.16-6.28A6.32,6.32,0,0,0,18.69,27L3.52,33.27a22.67,22.67,0,0,0,2.92,4.37l7.15-7.15A12.56,12.56,0,0,0,16.13,33h0L9,40.18a22.57,22.57,0,0,0,4.37,2.92l6.28-15.17a6.31,6.31,0,0,0,3.32,1.38L16.67,44.47a22.47,22.47,0,0,0,5.16,1V35.39a11.3,11.3,0,0,0,3.59,0h0V45.5a22.47,22.47,0,0,0,5.16-1L24.29,29.31a6.31,6.31,0,0,0,3.32-1.38L33.89,43.1a22.57,22.57,0,0,0,4.37-2.92L31.11,33h0A12.55,12.55,0,0,0,33.65,30.49Z"/><path class="cls-1" d="M84.73,30.48a6.74,6.74,0,0,1-4.83,3.15c-3.88,0-6.28-3-6.28-6.69a8.29,8.29,0,0,1,1.92-5.33,6.6,6.6,0,0,1,4.79-2.43,4.69,4.69,0,0,1,4.48,4.45c0,0.79-.09.85-0.63,1s-4.35.41-8.33,0.54c-0.1,4.89,2.93,6.53,5.24,6.53a5.22,5.22,0,0,0,3.31-1.51ZM76,24.2c1.89,0,3.75,0,5.65-.06,0.44,0,.57-0.19.57-1a2.89,2.89,0,0,0-2.87-3.06C77.86,20.1,76.34,21.49,76,24.2Z"/><path class="cls-1" d="M91.48,33.63l-4-11.42c-0.6-1.67-.66-1.86-2.24-2.18V19.56h6.34V20l-1.29.35c-0.6.16-.76,0.44-0.44,1.36l2.71,8.11h0.06c1.17-3,2.37-6.43,3.82-10.12h0.35l4.07,10.12h0.06c0.76-2.49,1.77-5.8,2.27-8.07,0.22-1,.13-1.29-0.44-1.42L101.23,20V19.56h5.55V20c-1.55.38-1.77,0.6-2.37,2-0.91,2.11-2.62,7.35-4,11.61H99.93L95.8,23.57c-1.26,3.28-2.55,6.37-3.88,10.06H91.48Z"/><path class="cls-1" d="M117.56,28.68c0,3.41.25,3.78,2.84,4.13v0.44h-8.2V32.81c2.65-.35,2.9-0.73,2.9-4.13V17.32c0-3.41-.25-3.78-2.78-4.13V12.75H121a9.24,9.24,0,0,1,5,1.07,4.59,4.59,0,0,1,2.08,4c0,2.52-1.61,4.48-4.26,5.55,0.54,0.95,1.83,3.09,2.78,4.48a41.11,41.11,0,0,0,2.84,3.69,3.67,3.67,0,0,0,2.33,1.51l0,0.38c-0.38,0-.91,0-1.89-0.13a5.45,5.45,0,0,1-4.45-2.68c-1.26-1.8-2.37-3.82-3.31-5.39a2.2,2.2,0,0,0-2.27-1.17h-2.25v4.57Zm0-5.2h2.34a5.7,5.7,0,0,0,3.6-.82,5.21,5.21,0,0,0,1.83-4.35c0-3.47-2.16-4.92-4.92-4.92a12.87,12.87,0,0,0-2.56.24c-0.19.06-.28,0.22-0.28,0.85v9Z"/><path class="cls-1" d="M142.36,30.48a6.74,6.74,0,0,1-4.83,3.15c-3.88,0-6.28-3-6.28-6.69a8.29,8.29,0,0,1,1.92-5.33A6.6,6.6,0,0,1,138,19.18a4.69,4.69,0,0,1,4.48,4.45c0,0.79-.09.85-0.63,1s-4.35.41-8.33,0.54c-0.09,4.89,2.93,6.53,5.24,6.53A5.22,5.22,0,0,0,142,30.16Zm-8.71-6.28c1.89,0,3.75,0,5.65-.06,0.44,0,.57-0.19.57-1A2.89,2.89,0,0,0,137,20.1C135.48,20.1,134,21.49,133.65,24.2Z"/><path class="cls-1" d="M152.32,23.06c-1-2.21-2.18-3.09-3.53-3.09a2,2,0,0,0-2.08,2.18c0,1.55,1.39,2.3,2.84,2.9,2.4,1,3.82,2,3.82,4.23,0,2.84-2.74,4.35-5.14,4.35a6.18,6.18,0,0,1-3.6-1.17,14.59,14.59,0,0,1-.38-3.5l0.47-.06c0.57,1.77,2.21,3.94,4,3.94a2.23,2.23,0,0,0,2.43-2.43c0-1.55-1-2.24-2.62-3-1.92-.88-3.82-1.8-3.82-4.07s2-4.16,4.76-4.16a6.6,6.6,0,0,1,2.62.54,19.54,19.54,0,0,1,.66,3.15Z"/><path class="cls-1" d="M166.39,30.48a6.74,6.74,0,0,1-4.83,3.15c-3.88,0-6.28-3-6.28-6.69a8.29,8.29,0,0,1,1.92-5.33A6.6,6.6,0,0,1,162,19.18a4.69,4.69,0,0,1,4.48,4.45c0,0.79-.09.85-0.63,1s-4.35.41-8.33,0.54c-0.1,4.89,2.93,6.53,5.24,6.53a5.22,5.22,0,0,0,3.31-1.51Zm-8.7-6.28c1.89,0,3.75,0,5.65-.06,0.44,0,.57-0.19.57-1A2.89,2.89,0,0,0,161,20.1C159.51,20.1,158,21.49,157.68,24.2Z"/><path class="cls-1" d="M178,30.1c0,1.17.41,1.77,0.88,1.77a2.87,2.87,0,0,0,1.36-.35L180.52,32l-3,1.64a2.45,2.45,0,0,1-1.77-2.11c-1.29.88-3,2.11-3.66,2.11A3.75,3.75,0,0,1,168.25,30c0-1.45.76-2.46,2.43-3.09a45,45,0,0,0,5-2.14V23.47c0-1.89-.85-3.12-2.46-3.12a2.17,2.17,0,0,0-1.58.5,3.65,3.65,0,0,0-1.07,2.27,0.67,0.67,0,0,1-.73.6,1.35,1.35,0,0,1-1.32-1.1,2,2,0,0,1,1-1.29,12.65,12.65,0,0,1,4.83-2.14,4.2,4.2,0,0,1,2.37.73A3.45,3.45,0,0,1,178,23v7.1Zm-2.3-4.6c-0.69.28-2.55,1.14-3.15,1.45-1.23.6-1.77,1.23-1.77,2.4A2.37,2.37,0,0,0,173,32a4.57,4.57,0,0,0,2.68-1.1V25.49Z"/><path class="cls-1" d="M185.53,30.41c0,1.74.16,2.05,2.59,2.4v0.44H181V32.81c2-.35,2.18-0.66,2.18-2.4V23.13c0-1.86-.06-2.05-2.08-2.3V20.38a24.08,24.08,0,0,0,4.45-1.26v3.41h0.06c0.73-1.36,2.21-3.34,3.69-3.34A1.71,1.71,0,0,1,191,20.67a1.66,1.66,0,0,1-.95,1.45,0.64,0.64,0,0,1-.73,0,2,2,0,0,0-1.36-.63c-0.73,0-1.51.54-2.4,2.18v6.78Z"/><path class="cls-1" d="M202.12,20a0.81,0.81,0,0,1,.31.69,1.47,1.47,0,0,1-1,1.39,0.68,0.68,0,0,1-.47-0.22,4.76,4.76,0,0,0-3.41-1.42c-1.83,0-3.69,1.42-3.69,5.11,0,4.89,3.44,6.12,5,6.12s2.18-.35,3.82-1.89l0.31,0.28c-1.32,2.08-3.25,3.53-5,3.53a6.42,6.42,0,0,1-6.5-6.47,7.49,7.49,0,0,1,2.9-6,8.82,8.82,0,0,1,5.11-2A5.08,5.08,0,0,1,202.12,20Z"/><path class="cls-1" d="M207.7,21.45a7.65,7.65,0,0,1,4.54-2.27c2.65-.06,4.29,1.61,4.29,4.6v6.62c0,1.74.16,2.05,2,2.4v0.44H212V32.81c2-.35,2.14-0.66,2.14-2.4V24.67c0-2.37-.82-3.88-3.25-3.88a4.72,4.72,0,0,0-3.22,1.39v8.23c0,1.74.16,2.05,2.08,2.4v0.44h-6.5V32.81c1.89-.35,2.05-0.66,2.05-2.4V14.67c0-1.89-.06-2.08-2.14-2.37V12c1.39-.28,3.44-0.79,4.51-1.1v10.6Z"/><path class="cls-1" d="M240.91,17.92c-1.26-3.63-3.31-5-6.5-5-4.8,0-7.35,4.64-7.35,9.59,0,6.09,2.73,10.47,7.38,10.47,3.66,0,5.3-2.05,7.16-5.36l0.47,0.09c-0.41,1.36-1.1,3.88-1.61,5.08a28.34,28.34,0,0,1-5.93.88A10.15,10.15,0,0,1,224,23.28c0-6.5,4.81-11,11.14-11a23.52,23.52,0,0,1,5.71.82c0.25,1.73.38,3.12,0.57,4.76Z"/><path class="cls-1" d="M254.95,30.48a6.74,6.74,0,0,1-4.83,3.15c-3.88,0-6.28-3-6.28-6.69a8.29,8.29,0,0,1,1.92-5.33,6.6,6.6,0,0,1,4.79-2.43A4.69,4.69,0,0,1,255,23.63c0,0.79-.09.85-0.63,1s-4.35.41-8.33,0.54C246,30,249,31.67,251.32,31.67a5.22,5.22,0,0,0,3.31-1.51Zm-8.71-6.28c1.89,0,3.75,0,5.65-.06,0.44,0,.57-0.19.57-1a2.89,2.89,0,0,0-2.87-3.06C248.07,20.1,246.56,21.49,246.24,24.2Z"/><path class="cls-1" d="M260.77,21.61c0.63-.41,1.45-1,2.27-1.51a4.6,4.6,0,0,1,2.55-.91c2.62,0,4,1.7,4,4.16v7.07c0,1.74.16,2.05,1.92,2.4v0.44h-6.59V32.81c2.14-.35,2.3-0.66,2.3-2.4V24.36c0-1.83-.57-3.56-3.06-3.56a5.92,5.92,0,0,0-3.41,1.51v8.11c0,1.74.16,2.05,2.11,2.4v0.44h-6.75V32.81c2.11-.35,2.27-0.66,2.27-2.4V23.13c0-1.86-.06-2.05-2.08-2.3V20.38a24.08,24.08,0,0,0,4.45-1.26v2.49Z"/><path class="cls-1" d="M276.32,29.09c0,2.49,1.2,3,2.08,3a4.86,4.86,0,0,0,2-.66l0.22,0.44-2.59,1.48a2,2,0,0,1-.85.28c-2.24,0-3.25-1.29-3.25-3.69V20.6h-2.3l-0.09-.32,1-.73H274V17.73l2-2.4,0.41,0.16v4.07h3.75a0.72,0.72,0,0,1-.22,1h-3.53v8.48Z"/><path class="cls-1" d="M292.36,30.48a6.74,6.74,0,0,1-4.83,3.15c-3.88,0-6.28-3-6.28-6.69a8.29,8.29,0,0,1,1.92-5.33A6.6,6.6,0,0,1,288,19.18a4.69,4.69,0,0,1,4.48,4.45c0,0.79-.09.85-0.63,1s-4.35.41-8.33,0.54c-0.1,4.89,2.93,6.53,5.24,6.53A5.22,5.22,0,0,0,292,30.16Zm-8.71-6.28c1.89,0,3.75,0,5.65-.06,0.44,0,.57-0.19.57-1A2.89,2.89,0,0,0,287,20.1C285.48,20.1,284,21.49,283.65,24.2Z"/><path class="cls-1" d="M298.17,30.41c0,1.74.16,2.05,2.59,2.4v0.44h-7.13V32.81c2-.35,2.18-0.66,2.18-2.4V23.13c0-1.86-.06-2.05-2.08-2.3V20.38a24.08,24.08,0,0,0,4.45-1.26v3.41h0.06c0.73-1.36,2.21-3.34,3.69-3.34a1.71,1.71,0,0,1,1.67,1.48,1.66,1.66,0,0,1-.95,1.45,0.64,0.64,0,0,1-.73,0,2,2,0,0,0-1.36-.63c-0.73,0-1.51.54-2.4,2.18v6.78Z"/><path class="cls-1" d="M62.74,28.68c0,3.41.25,3.78,3.31,4.13v0.44H57.38V32.81c2.59-.35,2.84-0.73,2.84-4.13V17.32c0-3.41-.25-3.78-2.68-4.13V12.75h8.68a8.79,8.79,0,0,1,5.27,1.33,5,5,0,0,1,2,4.32c0,3.75-3.12,6-6.15,6.34a16,16,0,0,1-1.6.06l-3-.72v4.6Zm0-5.26a9.93,9.93,0,0,0,2.85.44c2.32,0,5-1.14,5-5.36,0-3.63-1.92-5.11-5.14-5.11a12,12,0,0,0-2.4.25c-0.19.06-.29,0.21-0.29,0.84v8.95Z"/></svg>