<?xml version="1.0" encoding="UTF-8" standalone="no"?>
<svg
   xmlns:dc="http://purl.org/dc/elements/1.1/"
   xmlns:cc="http://creativecommons.org/ns#"
   xmlns:rdf="http://www.w3.org/1999/02/22-rdf-syntax-ns#"
   xmlns:svg="http://www.w3.org/2000/svg"
   xmlns="http://www.w3.org/2000/svg"
   viewBox="0 0 768 54.826668"
   height="54.826668"
   width="768"
   xml:space="preserve"
   id="svg2"
   version="1.1"><metadata
     id="metadata8"><rdf:RDF><cc:Work
         rdf:about=""><dc:format>image/svg+xml</dc:format><dc:type
           rdf:resource="http://purl.org/dc/dcmitype/StillImage" /></cc:Work></rdf:RDF></metadata><defs
     id="defs6" /><g
     transform="matrix(1.3333333,0,0,-1.3333333,0,54.826667)"
     id="g10"><g
       transform="scale(0.1)"
       id="g12"><path
         id="path14"
         style="fill:#100f0d;fill-opacity:1;fill-rule:nonzero;stroke:none"
         d="m 4745.15,286.234 -47.97,-122.726 h 96.51 z m -33.47,114.918 h 71.96 L 4955.47,6.18359 h -98.18 L 4823.26,89.8672 H 4669.84 L 4636.92,6.18359 h -95.95 L 4711.68,401.152" /><path
         id="path16"
         style="fill:#100f0d;fill-opacity:1;fill-rule:nonzero;stroke:none"
         d="m 4297.15,79.8086 h 78.1 c 6.7,0 13.48,0.75 20.37,2.2383 6.88,1.4804 13.11,4.0898 18.69,7.8086 5.58,3.7226 10.12,8.5468 13.67,14.5035 3.52,5.946 5.3,13.204 5.3,21.758 0,9.297 -2.32,16.824 -6.97,22.598 -4.66,5.762 -10.52,10.117 -17.58,13.113 -7.07,2.973 -14.7,5.012 -22.88,6.137 -8.17,1.109 -15.81,1.668 -22.87,1.668 h -65.83 z m 0,163.4614 h 63.05 c 6.69,0 13.29,0.746 19.8,2.242 6.5,1.472 12.36,3.902 17.57,7.25 5.21,3.336 9.39,7.808 12.56,13.383 3.15,5.578 4.73,12.277 4.73,20.085 0,8.176 -1.76,14.961 -5.3,20.364 -3.53,5.383 -8.08,9.57 -13.66,12.551 -5.59,2.968 -11.92,5.105 -18.97,6.414 -7.08,1.304 -13.95,1.961 -20.64,1.961 h -59.14 z m -87.03,157.882 h 147.28 c 17.1,0 34.32,-1.207 51.61,-3.621 17.3,-2.426 32.82,-7.254 46.59,-14.504 13.75,-7.254 24.91,-17.398 33.46,-30.418 8.56,-13.011 12.83,-30.316 12.83,-51.875 0,-22.312 -6.23,-40.816 -18.69,-55.507 -12.46,-14.7 -28.91,-25.207 -49.36,-31.524 v -1.121 c 13.01,-1.855 24.82,-5.488 35.42,-10.867 10.6,-5.399 19.7,-12.277 27.33,-20.637 7.63,-8.379 13.49,-18.144 17.58,-29.297 4.08,-11.164 6.13,-23.066 6.13,-35.715 0,-20.8277 -4.46,-38.2027 -13.39,-52.1558 -8.91,-13.9375 -20.45,-25.1954 -34.59,-33.75 -14.13,-8.5547 -30.03,-14.6875 -47.69,-18.4063 -17.67,-3.72265 -35.25,-5.57812 -52.73,-5.57812 H 4210.12 V 401.152" /><path
         id="path18"
         style="fill:#100f0d;fill-opacity:1;fill-rule:nonzero;stroke:none"
         d="m 5083.96,237.703 h 51.31 c 7.82,0 16.1,0.285 24.84,0.836 8.73,0.566 16.63,2.231 23.71,5.024 7.05,2.792 12.91,7.156 17.57,13.117 4.65,5.945 6.97,14.304 6.97,25.105 0,10.035 -2.05,18.024 -6.13,23.985 -4.1,5.937 -9.31,10.503 -15.63,13.668 -6.33,3.152 -13.57,5.296 -21.76,6.414 -8.18,1.109 -16.18,1.675 -23.99,1.675 h -56.89 z m -87.04,163.457 h 152.87 c 20.07,0 39.13,-1.941 57.17,-5.859 18.04,-3.903 33.84,-10.414 47.42,-19.516 13.58,-9.125 24.36,-21.402 32.37,-36.832 7.99,-15.43 11.99,-34.672 11.99,-57.734 0,-27.891 -7.26,-51.606 -21.76,-71.121 -14.51,-19.528 -35.7,-31.91 -63.6,-37.106 L 5313.81,6.18359 H 5209.47 L 5126.9,164.066 h -42.94 V 6.18359 h -87.04 V 401.16" /><path
         id="path20"
         style="fill:#100f0d;fill-opacity:1;fill-rule:nonzero;stroke:none"
         d="M 3569.58,286.234 3521.6,163.5 h 96.52 z m -33.48,114.918 h 71.97 L 3779.89,6.18359 h -98.18 L 3647.69,89.8672 H 3494.27 L 3461.35,6.18359 h -95.96 L 3536.1,401.152" /><path
         id="path22"
         style="fill:#100f0d;fill-opacity:1;fill-rule:nonzero;stroke:none"
         d="m 5549.68,286.234 -47.97,-122.726 h 96.5 z m -33.47,114.918 h 71.96 L 5760,6.18359 h -98.18 L 5627.78,89.8672 H 5474.37 L 5441.46,6.18359 H 5345.5 L 5516.21,401.152" /><path
         id="path24"
         style="fill:#100f0d;fill-opacity:1;fill-rule:nonzero;stroke:none"
         d="m 3121.58,79.8789 h 78.11 c 6.69,0 13.47,0.75 20.35,2.2344 6.88,1.4844 13.11,4.0898 18.7,7.8125 5.58,3.7187 10.13,8.543 13.66,14.5002 3.53,5.949 5.31,13.207 5.31,21.758 0,9.296 -2.33,16.82 -6.98,22.597 -4.66,5.766 -10.52,10.117 -17.58,13.117 -7.07,2.969 -14.69,5.008 -22.87,6.133 -8.18,1.114 -15.81,1.668 -22.88,1.668 h -65.82 z m 0,163.4571 h 63.04 c 6.7,0 13.29,0.75 19.8,2.238 6.51,1.481 12.37,3.906 17.57,7.258 5.22,3.336 9.4,7.805 12.56,13.383 3.16,5.578 4.74,12.273 4.74,20.082 0,8.176 -1.77,14.961 -5.31,20.367 -3.52,5.379 -8.07,9.566 -13.66,12.547 -5.57,2.965 -11.91,5.109 -18.96,6.418 -7.07,1.305 -13.96,1.957 -20.65,1.957 h -59.13 z m -87.04,157.883 h 147.29 c 17.11,0 34.31,-1.207 51.61,-3.621 17.29,-2.422 32.81,-7.254 46.58,-14.504 13.75,-7.254 24.91,-17.403 33.48,-30.414 8.54,-13.02 12.82,-30.317 12.82,-51.875 0,-22.317 -6.23,-40.821 -18.69,-55.512 -12.46,-14.703 -28.92,-25.207 -49.37,-31.52 v -1.125 c 13.01,-1.859 24.83,-5.492 35.42,-10.871 10.61,-5.39 19.71,-12.269 27.35,-20.64 7.61,-8.371 13.47,-18.133 17.56,-29.289 4.1,-11.16 6.14,-23.067 6.14,-35.711 0,-20.8323 -4.47,-38.2034 -13.39,-52.1604 -8.92,-13.9336 -20.45,-25.1953 -34.59,-33.75 -14.13,-8.5508 -30.03,-14.6836 -47.7,-18.4063 -17.66,-3.72264 -35.24,-5.57811 -52.71,-5.57811 h -161.8 V 401.219" /><path
         id="path26"
         style="fill:#100f0d;fill-opacity:1;fill-rule:nonzero;stroke:none"
         d="m 3908.38,237.758 h 51.32 c 7.81,0 16.09,0.285 24.83,0.84 8.73,0.566 16.63,2.226 23.71,5.019 7.05,2.797 12.92,7.156 17.57,13.113 4.65,5.95 6.97,14.309 6.97,25.11 0,10.035 -2.04,18.027 -6.13,23.988 -4.1,5.934 -9.31,10.504 -15.62,13.668 -6.33,3.149 -13.58,5.293 -21.76,6.414 -8.19,1.11 -16.17,1.676 -24,1.676 h -56.89 z m -87.03,163.461 h 152.86 c 20.08,0 39.13,-1.949 57.18,-5.864 18.03,-3.902 33.83,-10.414 47.42,-19.515 13.57,-9.121 24.35,-21.399 32.36,-36.828 7.99,-15.43 11.99,-34.676 11.99,-57.739 0,-27.89 -7.25,-51.605 -21.75,-71.125 -14.51,-19.531 -35.71,-31.902 -63.61,-37.097 L 4138.23,6.24219 H 4033.91 L 3951.34,164.125 h -42.96 V 6.24219 h -87.03 V 401.219" /><path
         id="path28"
         style="fill:#100f0d;fill-opacity:1;fill-rule:nonzero;stroke:none"
         d="M 1485.53,286.234 1437.56,163.5 h 96.51 z m -33.47,114.918 h 71.96 L 1695.85,6.18359 h -98.18 L 1563.64,89.8672 H 1410.22 L 1377.3,6.18359 h -95.95 L 1452.06,401.152" /><path
         id="path30"
         style="fill:#100f0d;fill-opacity:1;fill-rule:nonzero;stroke:none"
         d="M 2658.1,286.234 2610.13,163.5 h 96.51 z m -33.47,114.918 h 71.96 L 2868.42,6.18359 h -98.19 L 2736.21,89.8672 H 2582.79 L 2549.87,6.18359 h -95.95 L 2624.63,401.152" /><path
         id="path32"
         style="fill:#100f0d;fill-opacity:1;fill-rule:nonzero;stroke:none"
         d="m 1744.06,401.219 h 118.27 l 167.93,-274.477 h 1.12 v 274.477 h 87.03 V 6.24219 H 2004.6 L 1832.21,287.418 h -1.12 V 6.24219 h -87.03 V 401.219" /><path
         id="path34"
         style="fill:#100f0d;fill-opacity:1;fill-rule:nonzero;stroke:none"
         d="m 2288.17,324.238 h -109.01 v 76.981 h 312.42 V 324.238 H 2375.2 V 6.24219 h -87.03 V 324.238" /><path
         id="path36"
         style="fill:#100f0d;fill-opacity:1;fill-rule:nonzero;stroke:none"
         d="M 188.398,0.00390625 C 96.6563,0.00390625 44.6328,53.7031 44.6328,151.039 L 44.75,363.109 H 0 v 38.043 H 143.766 V 363.109 H 93.418 L 93.3008,156.633 c 0,-83.9064 29.6522,-116.3557 96.2152,-116.3557 63.781,0 101.812,25.7305 101.812,123.6327 l 0.117,199.199 h -50.34 v 38.043 h 143.762 v -38.043 h -44.75 L 340,157.199 C 340,59.8672 291.328,0.00390625 188.398,0.00390625" /><path
         id="path38"
         style="fill:#100f0d;fill-opacity:1;fill-rule:nonzero;stroke:none"
         d="M 731.328,137.609 C 721.254,72.7266 675.953,39.7188 610.496,39.7188 c -86.148,0 -137.613,61.5352 -137.613,163.3512 v 4.473 c 0,100.687 55.375,165.02 138.172,165.02 60.976,0 102.379,-25.735 118.593,-92.301 h 40.844 l 0.004,120.89 h -43.641 l -0.003,-43.691 c -20.696,36.922 -64.332,53.699 -114.68,53.699 -110.203,0 -189.633,-85.586 -189.633,-204.18 v -4.472 c 0,-123.0705 71.035,-202.50409375 186.836,-202.50409375 87.98,0 150.973,43.88669375 166.387,133.01609375 l -44.434,4.589" /><path
         id="path40"
         style="fill:#100f0d;fill-opacity:1;fill-rule:nonzero;stroke:none"
         d="m 1257.95,127.711 c 0,-75.1993 -63.62,-127.70709375 -154.68,-127.70709375 -72.98,0 -125.317,24.51949375 -155.598,72.92189375 l 59.678,51.0822 c 9.67,-13.789 42.9,-53.7892 103.27,-53.7892 37.73,0 61.17,16.3867 61.17,42.7932 0,33.34 -21.77,40.781 -76.84,56.218 -64.98,18.215 -131.067,46.286 -131.067,118.563 0,72.66 61.347,123.406 149.187,123.406 35.26,0 99.53,-8.238 134.74,-63.125 l -55.46,-48.297 c -21.03,27.731 -50.2,41.207 -89.08,41.207 -39.05,0 -53.23,-27.054 -53.23,-45.242 0,-28.804 38.42,-41.394 84.84,-53.769 59.53,-15.586 123.07,-38.551 123.07,-114.262" /></g></g></svg>