<svg id="Layer_1" data-name="Layer 1" xmlns="http://www.w3.org/2000/svg" viewBox="0 0 719.41 170"><defs><style>.cls-1{fill:#b3252d;}.cls-2{fill:#fff;}</style></defs><title>donate-button</title><path class="cls-1" d="M156.3,335V505H875.7V335Zm90.46,145H191.42V424.66h55.34Zm0-61.66H191.42V363h55.34ZM310,480H254.66V424.66H310Zm0-61.66H254.66V363H310Zm65.09,14.39a20,20,0,0,1-2.43,6.56q-3.42,5.83-13.32,5.83H345.12V404h14.22q9.48,0,13,4.8t3.48,15.06A48.29,48.29,0,0,1,375.09,432.73Zm30,9.09q-3,4-10.38,4t-10.38-4c-2-2.65-3-6.56-3-11.76s1-9.1,3.09-11.7,5.49-3.9,10.29-3.9,8.23,1.3,10.29,3.9,3.09,6.5,3.09,11.7S407.12,439.17,405.12,441.82Zm34.62,3.3h-6.48V429.21q0-4.84-1.05-6.89t-4.29-2a14.87,14.87,0,0,0-5.88,1.2l-.9.35v23.29H414.6v-30h6.48V417a16.6,16.6,0,0,1,8.28-2.52q6,0,8.19,3.39T439.74,429Zm32.28.66c-3.45,0-6.1-.74-8-2.22a22.86,22.86,0,0,1-9.66,2.22q-8.94,0-8.94-9.54,0-4.56,2.43-6.61t7.47-2.46l7.74-.65v-2.16a3.64,3.64,0,0,0-4.14-4.32q-3.84,0-9.6.48l-1.92.11-.24-4.61a52.08,52.08,0,0,1,12-1.56q5.49,0,7.92,2.37t2.43,7.53V438a2.8,2.8,0,0,0,.69,1.95,3.32,3.32,0,0,0,1.95.8Zm16,0c-3.41,0-5.73-.78-7-2.34s-1.89-4.5-1.89-8.82V420.7h-3.84v-5.58h3.84v-8.7h6.48v8.7h8.29v5.58h-8.29v13.2a13.92,13.92,0,0,0,.54,4.85c.37.81,1.28,1.21,2.77,1.21l4.91-.18.3,5.22A36,36,0,0,1,488,445.78Zm35-12.9h-18.6q.06,3.72,1.62,5.45t5.82,1.75q4.26,0,8.76-.37l1.68-.17.12,4.86a62.9,62.9,0,0,1-12.12,1.38q-6.66,0-9.57-3.66t-2.91-11.7q0-16,13-16,12.6,0,12.6,13.74Zm30.18,12.9q-5.1,0-7-2.34t-1.89-8.82V420.7h-3.84v-5.58h3.84v-8.7h6.48v8.7h8.28v5.58h-8.28v13.2a13.92,13.92,0,0,0,.54,4.85c.36.81,1.28,1.21,2.76,1.21l4.92-.18.3,5.22A36,36,0,0,1,553.19,445.78Zm33.54-4q-3,4-10.38,4t-10.38-4c-2-2.65-3-6.56-3-11.76s1-9.1,3.09-11.7,5.49-3.9,10.29-3.9,8.23,1.3,10.29,3.9,3.09,6.5,3.09,11.7S588.73,439.17,586.73,441.82Zm45.72,3.3-5.94-14.64h-9.66v14.64h-6.66V404h15.6q13.92,0,13.92,13.08,0,8.76-6.72,11.88l6.78,16.14Zm37.08,0-5.94-14.64h-9.66v14.64h-6.66V404h15.6q13.92,0,13.92,13.08,0,8.76-6.72,11.88l6.78,16.14Zm22-8.5c1.24,2.15,3.66,3.21,7.26,3.21a67.75,67.75,0,0,0,10.92-.89l.18,5.52a56.77,56.77,0,0,1-11.7,1.32q-9,0-12.21-5t-3.21-16.37q0-11.4,3.24-16.23t12.18-4.83a52,52,0,0,1,11.76,1.5l-.24,5.39a62.56,62.56,0,0,0-10.8-1c-3.6,0-6,1.08-7.32,3.21s-1.92,6.17-1.92,12.07S690.25,434.49,691.49,436.62Zm56.64,8.5h-6.72V427.36H723.65v17.76H717V404h6.66v17.52h17.76V404h6.72Zm41.1,0h-11.4l-12.78-35.29h-.84v35.29h-6.66V404h11.64l12.48,35.22h.9V404h6.66Zm51.06,0h-6.72V411.4h-.9l-9.72,32h-7l-9.72-32h-.9v33.72h-6.66V404h11.58l9.18,32.1,9.18-32.1h11.64Z" transform="translate(-156.3 -335)"/><path class="cls-1" d="M625.79,409.78h-8.94v14.93h9.06c2.4,0,4.16-.68,5.28-2.06a8.45,8.45,0,0,0,1.68-5.49Q632.87,409.78,625.79,409.78Z" transform="translate(-156.3 -335)"/><path class="cls-1" d="M576.35,420q-3.84,0-5.31,2.27T569.57,430q0,5.46,1.38,7.86c.92,1.6,2.72,2.39,5.4,2.39s4.48-.79,5.4-2.39,1.38-4.22,1.38-7.86-.49-6.22-1.47-7.75S578.91,420,576.35,420Z" transform="translate(-156.3 -335)"/><path class="cls-1" d="M662.87,409.78h-8.94v14.93H663c2.4,0,4.16-.68,5.28-2.06a8.45,8.45,0,0,0,1.68-5.49Q670,409.78,662.87,409.78Z" transform="translate(-156.3 -335)"/><path class="cls-1" d="M359.34,409.83h-7.56v29.41h7.56q5.94,0,7.92-4.38a17.76,17.76,0,0,0,1.29-4.74,49.29,49.29,0,0,0,.33-6.24q0-7.44-1.86-10.75C365.78,410.94,363.22,409.83,359.34,409.83Z" transform="translate(-156.3 -335)"/><path class="cls-1" d="M394.74,420q-3.84,0-5.31,2.27T388,430q0,5.46,1.38,7.86c.92,1.6,2.72,2.39,5.4,2.39s4.48-.79,5.4-2.39,1.38-4.22,1.38-7.86-.49-6.22-1.47-7.75S397.3,420,394.74,420Z" transform="translate(-156.3 -335)"/><path class="cls-1" d="M510.83,419.86q-3.36,0-4.89,1.85t-1.59,6.12H517q0-4.43-1.41-6.21T510.83,419.86Z" transform="translate(-156.3 -335)"/><path class="cls-1" d="M452,436.29q0,4.15,3.66,4.15a23.23,23.23,0,0,0,6.36-1l1.08-.36v-8l-7,.66Q452,432.17,452,436.29Z" transform="translate(-156.3 -335)"/><path class="cls-2" d="M359.34,404H345.12v41.1h14.22q9.9,0,13.32-5.83a20,20,0,0,0,2.43-6.56,48.29,48.29,0,0,0,.69-8.85q0-10.26-3.48-15.06T359.34,404Zm9.21,26.1a17.76,17.76,0,0,1-1.29,4.74q-2,4.38-7.92,4.38h-7.56V409.83h7.56c3.88,0,6.44,1.11,7.68,3.3s1.86,5.79,1.86,10.75A49.29,49.29,0,0,1,368.55,430.12Z" transform="translate(-156.3 -335)"/><path class="cls-2" d="M394.74,414.46q-7.2,0-10.29,3.9t-3.09,11.7c0,5.2,1,9.11,3,11.76s5.46,4,10.38,4,8.38-1.32,10.38-4,3-6.56,3-11.76-1-9.1-3.09-11.7S399.54,414.46,394.74,414.46Zm5.4,23.4c-.92,1.6-2.72,2.39-5.4,2.39s-4.48-.79-5.4-2.39S388,433.64,388,430s.49-6.22,1.47-7.75,2.75-2.27,5.31-2.27,4.33.76,5.31,2.27,1.47,4.11,1.47,7.75S401.06,436.26,400.14,437.86Z" transform="translate(-156.3 -335)"/><path class="cls-2" d="M429.36,414.46a16.6,16.6,0,0,0-8.28,2.52v-1.86H414.6v30h6.54V421.83l.9-.35a14.87,14.87,0,0,1,5.88-1.2q3.24,0,4.29,2t1.05,6.89v15.91h6.48V429q0-7.8-2.19-11.19T429.36,414.46Z" transform="translate(-156.3 -335)"/><path class="cls-2" d="M469.56,438V424.36q0-5.16-2.43-7.53t-7.92-2.37a52.08,52.08,0,0,0-12,1.56l.24,4.61,1.92-.11q5.76-.48,9.6-.48a3.64,3.64,0,0,1,4.14,4.32v2.16l-7.74.65q-5,.43-7.47,2.46t-2.43,6.61q0,9.54,8.94,9.54a22.86,22.86,0,0,0,9.66-2.22c1.88,1.48,4.53,2.22,8,2.22l.18-5a3.32,3.32,0,0,1-1.95-.8A2.8,2.8,0,0,1,469.56,438Zm-6.48,1.08-1.08.36a23.23,23.23,0,0,1-6.36,1q-3.66,0-3.66-4.15t4.14-4.5l7-.66Z" transform="translate(-156.3 -335)"/><path class="cls-2" d="M488.94,440c-1.49,0-2.4-.4-2.77-1.21a13.92,13.92,0,0,1-.54-4.85V420.7h8.29v-5.58h-8.29v-8.7h-6.48v8.7h-3.84v5.58h3.84v13.92c0,4.32.64,7.26,1.89,8.82s3.59,2.34,7,2.34a36,36,0,0,0,6.11-.78l-.3-5.22Z" transform="translate(-156.3 -335)"/><path class="cls-2" d="M510.83,414.46q-13,0-13,16,0,8,2.91,11.7t9.57,3.66a62.9,62.9,0,0,0,12.12-1.38l-.12-4.86-1.68.17q-4.5.38-8.76.37T506,438.33q-1.56-1.72-1.62-5.45H523l.42-4.68Q523.43,414.46,510.83,414.46Zm-6.48,13.37q.06-4.24,1.59-6.12t4.89-1.85q3.36,0,4.77,1.76t1.41,6.21Z" transform="translate(-156.3 -335)"/><path class="cls-2" d="M554.09,440c-1.48,0-2.4-.4-2.76-1.21a13.92,13.92,0,0,1-.54-4.85V420.7h8.28v-5.58h-8.28v-8.7h-6.48v8.7h-3.84v5.58h3.84v13.92q0,6.48,1.89,8.82t7,2.34a36,36,0,0,0,6.12-.78l-.3-5.22Z" transform="translate(-156.3 -335)"/><path class="cls-2" d="M576.35,414.46q-7.2,0-10.29,3.9T563,430.06c0,5.2,1,9.11,3,11.76s5.46,4,10.38,4,8.38-1.32,10.38-4,3-6.56,3-11.76-1-9.1-3.09-11.7S581.15,414.46,576.35,414.46Zm5.4,23.4c-.92,1.6-2.72,2.39-5.4,2.39s-4.48-.79-5.4-2.39-1.38-4.22-1.38-7.86.49-6.22,1.47-7.75,2.75-2.27,5.31-2.27,4.33.76,5.31,2.27,1.47,4.11,1.47,7.75S582.67,436.26,581.75,437.86Z" transform="translate(-156.3 -335)"/><path class="cls-2" d="M639.71,417.1q0-13.08-13.92-13.08h-15.6v41.1h6.66V430.48h9.66l5.94,14.64h7.32L633,429Q639.71,425.86,639.71,417.1Zm-8.52,5.55c-1.12,1.38-2.88,2.06-5.28,2.06h-9.06V409.78h8.94q7.08,0,7.08,7.38A8.45,8.45,0,0,1,631.19,422.65Z" transform="translate(-156.3 -335)"/><path class="cls-2" d="M676.79,417.1q0-13.08-13.92-13.08h-15.6v41.1h6.66V430.48h9.66l5.94,14.64h7.32L670.07,429Q676.79,425.86,676.79,417.1Zm-8.52,5.55c-1.12,1.38-2.88,2.06-5.28,2.06h-9.06V409.78h8.94q7.08,0,7.08,7.38A8.45,8.45,0,0,1,668.27,422.65Z" transform="translate(-156.3 -335)"/><path class="cls-2" d="M698.87,409.29a62.56,62.56,0,0,1,10.8,1l.24-5.39a52,52,0,0,0-11.76-1.5q-8.94,0-12.18,4.83t-3.24,16.23q0,11.4,3.21,16.37t12.21,5a56.77,56.77,0,0,0,11.7-1.32l-.18-5.52a67.75,67.75,0,0,1-10.92.89c-3.6,0-6-1.06-7.26-3.21s-1.86-6.15-1.86-12.05.64-9.92,1.92-12.07S695.27,409.29,698.87,409.29Z" transform="translate(-156.3 -335)"/><polygon class="cls-2" points="585.11 86.53 567.35 86.53 567.35 69.02 560.69 69.02 560.69 110.11 567.35 110.11 567.35 92.36 585.11 92.36 585.11 110.11 591.84 110.11 591.84 69.02 585.11 69.02 585.11 86.53"/><polygon class="cls-2" points="626.27 104.23 625.37 104.23 612.89 69.02 601.25 69.02 601.25 110.11 607.91 110.11 607.91 74.83 608.75 74.83 621.53 110.11 632.93 110.11 632.93 69.02 626.27 69.02 626.27 104.23"/><polygon class="cls-2" points="663.17 101.11 653.99 69.02 642.41 69.02 642.41 110.11 649.07 110.11 649.07 76.4 649.97 76.4 659.69 108.44 666.65 108.44 676.37 76.4 677.27 76.4 677.27 110.11 683.99 110.11 683.99 69.02 672.35 69.02 663.17 101.11"/><rect class="cls-2" x="35.12" y="28" width="55.34" height="55.34"/><rect class="cls-2" x="98.37" y="28" width="55.34" height="55.34"/><rect class="cls-2" x="35.12" y="89.66" width="55.34" height="55.34"/><rect class="cls-2" x="98.37" y="89.66" width="55.34" height="55.34"/></svg>